<?xml version="1.0" encoding="utf-8"?>
<!-- Generator: Adobe Illustrator 21.1.0, SVG Export Plug-In . SVG Version: 6.00 Build 0)  -->
<svg version="1.1" id="_x31_" xmlns="http://www.w3.org/2000/svg" xmlns:xlink="http://www.w3.org/1999/xlink" x="0px" y="0px"
	 viewBox="0 0 206.7 35.8" style="enable-background:new 0 0 206.7 35.8;" xml:space="preserve">
<style type="text/css">
	.st0{display:none;fill-rule:evenodd;clip-rule:evenodd;fill:#6095C8;}
	.st1{fill-rule:evenodd;clip-rule:evenodd;}
	.st2{fill-rule:evenodd;clip-rule:evenodd;fill:#6095C8;}
</style>
<g>
	<g>
		<defs>
			<path id="SVGID_1_" d="M76.6,20.8c0.1-0.6,0.2-1.2,0.5-1.7c0.2-0.5,0.5-1,0.9-1.4c0.4-0.4,0.9-0.7,1.4-1c0.6-0.2,1.2-0.4,2-0.4
				c0.7,0,1.3,0.1,1.9,0.4c0.5,0.3,1,0.6,1.4,1c0.4,0.4,0.7,0.9,0.9,1.4c0.2,0.5,0.3,1,0.4,1.6H76.6L76.6,20.8z M81.2,12
				c-1.5,0-3,0.3-4.3,0.8c-1.3,0.5-2.4,1.2-3.3,2.2c-0.9,0.9-1.7,2.1-2.2,3.5c-0.5,1.4-0.8,2.9-0.8,4.5c0,1.7,0.3,3.2,0.8,4.5
				c0.5,1.3,1.2,2.5,2.2,3.4c0.9,0.9,2,1.7,3.3,2.2c1.3,0.5,2.7,0.8,4.3,0.8c2.4,0,4.6-0.5,6.3-1.6c1.8-1.1,3-2.7,3.7-4.8l-5.6-0.4
				c-0.4,0.8-1,1.4-1.7,1.8c-0.7,0.4-1.5,0.6-2.4,0.6c-0.8,0-1.4-0.1-2-0.4c-0.6-0.3-1.1-0.6-1.5-1.1c-0.4-0.4-0.7-0.9-0.9-1.5
				c-0.2-0.6-0.4-1.2-0.4-1.8h15.1v-1.6c0-1.7-0.3-3.2-0.8-4.5c-0.5-1.3-1.3-2.5-2.2-3.5c-0.9-0.9-2-1.7-3.3-2.2
				C84.2,12.2,82.7,12,81.2,12L81.2,12z M98.8,27.2L98.8,27.2c0-0.8,0.3-1.3,0.8-1.7c0.5-0.4,1.4-0.7,2.8-0.8l4.8-0.4v1.9
				c0,0.6-0.1,1.2-0.5,1.6c-0.3,0.5-0.7,0.8-1.2,1.1c-0.5,0.3-1,0.5-1.5,0.6c-0.6,0.1-1.1,0.2-1.5,0.2c-0.5,0-1,0-1.4-0.1
				c-0.4-0.1-0.8-0.2-1.1-0.4c-0.3-0.2-0.6-0.4-0.8-0.7C99,28,98.8,27.6,98.8,27.2L98.8,27.2z M103.4,12c-1.8,0-3.3,0.2-4.5,0.7
				c-1.2,0.5-2.2,1-2.9,1.7c-0.8,0.7-1.3,1.5-1.6,2.3c-0.3,0.8-0.5,1.7-0.6,2.5h5.6c0-0.9,0.4-1.7,1.1-2.2c0.7-0.6,1.6-0.8,2.8-0.8
				c1.3,0,2.3,0.3,3,0.9c0.7,0.6,1.1,1.5,1.1,2.8v1l-5.3,0.3c-2,0.1-3.6,0.4-4.8,0.9c-1.2,0.5-2.1,1-2.7,1.6c-0.6,0.6-1,1.3-1.1,1.9
				c-0.2,0.7-0.3,1.3-0.3,1.9c0,1.2,0.2,2.2,0.7,3c0.4,0.8,1,1.5,1.7,1.9c0.7,0.5,1.5,0.9,2.4,1.1c0.8,0.2,1.7,0.3,2.5,0.3
				c1.2,0,2.5-0.2,3.7-0.7c1.3-0.5,2.4-1.3,3.4-2.6l0.1,0v2.7h5.6c-0.1-0.4-0.1-0.8-0.2-1.2c0-0.4-0.1-0.9-0.1-1.4v-12
				c0-1.2-0.2-2.2-0.7-3c-0.5-0.9-1.2-1.5-2-2.1c-0.8-0.5-1.8-0.9-3-1.2C105.9,12.1,104.7,12,103.4,12L103.4,12z M44.7,3h-6v30.2h6
				V3L44.7,3z M52.9,23L52.9,23c0-0.8,0.1-1.5,0.3-2.3c0.2-0.7,0.5-1.4,1-1.9c0.4-0.6,1-1,1.6-1.4c0.6-0.3,1.4-0.5,2.2-0.5
				c0.9,0,1.7,0.2,2.4,0.5c0.7,0.3,1.2,0.8,1.6,1.3c0.4,0.6,0.8,1.2,1,1.9c0.2,0.7,0.3,1.5,0.3,2.3c0,0.9-0.1,1.7-0.3,2.4
				c-0.2,0.8-0.6,1.4-1,2c-0.4,0.6-1,1-1.6,1.3c-0.6,0.3-1.4,0.5-2.2,0.5c-0.8,0-1.6-0.2-2.2-0.5c-0.6-0.3-1.2-0.8-1.6-1.3
				c-0.4-0.6-0.8-1.2-1-2C53,24.6,52.9,23.8,52.9,23L52.9,23z M68.8,3h-5.8v12.4H63c-1-1.3-2-2.2-3-2.7c-1-0.5-2.2-0.7-3.6-0.7
				c-1.5,0-2.8,0.3-4,0.9c-1.2,0.6-2.2,1.4-3,2.4c-0.8,1-1.4,2.2-1.9,3.5c-0.4,1.3-0.7,2.7-0.7,4.1c0,1.4,0.2,2.8,0.7,4.1
				s1.1,2.5,2,3.5c0.8,1,1.8,1.8,3,2.4c1.2,0.6,2.5,0.9,3.9,0.9c1.3,0,2.6-0.3,3.7-0.8c1.1-0.5,2.1-1.4,3-2.7l0.1,0v2.9h5.5V3z"/>
		</defs>
		<linearGradient id="SVGID_2_" gradientUnits="userSpaceOnUse" x1="38.6739" y1="18.3594" x2="113.0343" y2="18.3594">
			<stop  offset="0" style="stop-color:#6095C8"/>
			<stop  offset="1" style="stop-color:#000000"/>
		</linearGradient>
		<use xlink:href="#SVGID_1_"  style="overflow:visible;fill-rule:evenodd;clip-rule:evenodd;fill:url(#SVGID_2_);"/>
		<clipPath id="SVGID_3_">
			<use xlink:href="#SVGID_1_"  style="overflow:visible;"/>
		</clipPath>
	</g>
	<path class="st0" d="M118.8,3h10.7c1.6,0,3,0.2,4.2,0.6c1.2,0.4,2.2,0.9,3.1,1.7c0.8,0.7,1.4,1.6,1.9,2.6c0.4,1,0.6,2.1,0.6,3.4
		c0,0.8-0.1,1.6-0.3,2.2c-0.2,0.7-0.5,1.2-0.9,1.7c-0.4,0.5-0.8,0.9-1.3,1.3c-0.5,0.4-1,0.7-1.5,0.9v0.1c0.7,0.2,1.3,0.4,1.9,0.8
		c0.6,0.4,1.1,0.9,1.6,1.4c0.5,0.6,0.8,1.3,1.1,2c0.3,0.8,0.4,1.6,0.4,2.6c0,1.4-0.3,2.6-0.8,3.7c-0.5,1.1-1.2,2-2.2,2.8
		c-0.9,0.8-2,1.3-3.3,1.8c-1.3,0.4-2.7,0.6-4.3,0.6h-11V3L118.8,3z M128.4,15.4c1.5,0,2.6-0.3,3.5-0.9c0.9-0.6,1.3-1.5,1.3-2.8
		c0-1.3-0.4-2.2-1.2-2.7c-0.8-0.6-1.8-0.8-3-0.8h-4.2v7.3H128.4L128.4,15.4z M128.8,28c1.9,0,3.2-0.4,4-1.1c0.8-0.7,1.2-1.6,1.2-2.7
		c0-0.5-0.1-1-0.2-1.4c-0.2-0.5-0.4-0.9-0.8-1.3c-0.4-0.4-0.9-0.7-1.5-0.9c-0.6-0.2-1.3-0.3-2.2-0.3h-4.5V28H128.8z"/>
	<path class="st1" d="M124.8,20.3L124.8,20.3h4.5c0.9,0,1.6,0.1,2.2,0.3c0.6,0.2,1.1,0.5,1.5,0.9c0.4,0.4,0.6,0.8,0.8,1.3
		c0.2,0.5,0.2,0.9,0.2,1.4c0,1.1-0.4,2-1.2,2.7c-0.8,0.7-2.1,1.1-4,1.1h-4V20.3L124.8,20.3z M124.8,8.1L124.8,8.1h4.2
		c1.2,0,2.2,0.3,3,0.8c0.8,0.6,1.2,1.5,1.2,2.7c0,1.2-0.4,2.1-1.3,2.8c-0.9,0.6-2,0.9-3.5,0.9h-3.7V8.1L124.8,8.1z M129.5,3h-10.7
		v30.2h11c1.6,0,3-0.2,4.3-0.6c1.3-0.4,2.4-1,3.3-1.8c0.9-0.8,1.6-1.7,2.2-2.8c0.5-1.1,0.8-2.3,0.8-3.7c0-0.9-0.1-1.8-0.4-2.6
		c-0.3-0.8-0.6-1.5-1.1-2c-0.5-0.6-1-1.1-1.6-1.4c-0.6-0.4-1.2-0.7-1.9-0.8v-0.1c0.5-0.2,1.1-0.5,1.5-0.9c0.5-0.4,0.9-0.8,1.3-1.3
		c0.4-0.5,0.7-1.1,0.9-1.7c0.2-0.7,0.3-1.4,0.3-2.2c0-1.2-0.2-2.4-0.6-3.4c-0.4-1-1-1.9-1.9-2.6c-0.8-0.7-1.8-1.3-3.1-1.7
		C132.5,3.2,131.1,3,129.5,3z"/>
	<path class="st1" d="M146.8,27.2L146.8,27.2c0-0.7,0.3-1.3,0.8-1.7c0.5-0.4,1.4-0.7,2.8-0.8l4.8-0.4v1.9c0,0.6-0.2,1.1-0.5,1.6
		c-0.3,0.4-0.7,0.8-1.2,1.1c-0.5,0.3-1,0.5-1.5,0.6c-0.5,0.1-1.1,0.2-1.5,0.2c-0.5,0-0.9,0-1.4-0.1c-0.4-0.1-0.8-0.2-1.1-0.4
		c-0.3-0.2-0.6-0.4-0.8-0.7C146.9,28,146.8,27.6,146.8,27.2L146.8,27.2z M151.4,12c-1.8,0-3.3,0.2-4.5,0.7c-1.2,0.5-2.2,1-2.9,1.8
		c-0.8,0.7-1.3,1.5-1.6,2.3c-0.3,0.8-0.5,1.7-0.6,2.5h5.5c0.1-0.9,0.4-1.7,1.1-2.2c0.7-0.6,1.6-0.8,2.8-0.8c1.3,0,2.3,0.3,3,0.9
		c0.7,0.6,1.1,1.5,1.1,2.8v1l-5.3,0.3c-2,0.1-3.6,0.4-4.8,0.9c-1.2,0.5-2.1,1-2.7,1.6c-0.6,0.6-1,1.3-1.1,1.9
		c-0.2,0.7-0.2,1.3-0.2,1.9c0,1.2,0.2,2.2,0.7,3c0.4,0.8,1,1.5,1.7,1.9c0.7,0.5,1.5,0.9,2.3,1.1c0.9,0.2,1.7,0.3,2.5,0.3
		c1.2,0,2.4-0.2,3.7-0.7c1.3-0.5,2.4-1.3,3.4-2.6l0.1,0v2.7h5.6c-0.1-0.4-0.1-0.8-0.2-1.2c-0.1-0.4-0.1-0.9-0.1-1.4v-12
		c0-1.2-0.2-2.2-0.7-3c-0.5-0.8-1.2-1.5-2-2.1c-0.9-0.5-1.9-0.9-3-1.2C153.9,12.1,152.7,12,151.4,12z"/>
	<path class="st1" d="M174.9,12c-1.2,0-2.3,0.2-3.3,0.7c-1,0.5-2,1.3-2.8,2.6h-0.1v-2.7h-5.5v20.7h5.8V21.5c0-1.4,0.3-2.6,1-3.5
		c0.7-0.9,1.6-1.3,2.8-1.3c0.5,0,0.9,0.1,1.3,0.2c0.4,0.1,0.8,0.4,1.2,0.7c0.3,0.3,0.6,0.7,0.8,1.2c0.2,0.5,0.3,1.1,0.3,1.9v12.6
		h5.8v-14c0-1-0.1-1.9-0.4-2.8c-0.3-0.9-0.7-1.6-1.3-2.3c-0.6-0.7-1.4-1.2-2.3-1.5C177.2,12.2,176.1,12,174.9,12z"/>
	<polygon class="st1" points="190.2,3 184.4,3 184.4,33.2 190.2,33.2 190.2,23.1 190.2,23.1 196.4,33.2 203.5,33.2 196.3,21.8 
		203.2,12.5 196.5,12.5 190.2,21.6 190.2,21.6 	"/>
	<path class="st1" d="M201.9,21.4L201.9,21.4h0.9c0.1,0,0.2,0,0.3,0c0.1,0,0.2,0.1,0.2,0.1c0.1,0,0.1,0.1,0.2,0.2
		c0,0.1,0.1,0.2,0.1,0.3c0,0.1,0,0.2-0.1,0.3c0,0.1-0.1,0.1-0.2,0.2c-0.1,0-0.2,0.1-0.3,0.1c-0.1,0-0.2,0-0.4,0h-0.7V21.4
		L201.9,21.4z M202.8,21h-1.3v3.4h0.4V23h0.7l0.9,1.5h0.5l-1-1.5c0.1,0,0.2,0,0.3-0.1c0.1,0,0.2-0.1,0.3-0.2
		c0.1-0.1,0.1-0.2,0.2-0.3c0-0.1,0.1-0.3,0.1-0.4c0-0.3-0.1-0.6-0.3-0.7C203.5,21.1,203.2,21,202.8,21L202.8,21z M200.2,22.7
		c0,0.4,0.1,0.7,0.2,1c0.1,0.3,0.3,0.6,0.5,0.8c0.2,0.2,0.5,0.4,0.8,0.5c0.3,0.1,0.6,0.2,1,0.2c0.3,0,0.7-0.1,1-0.2
		c0.3-0.1,0.6-0.3,0.8-0.5c0.2-0.2,0.4-0.5,0.5-0.8c0.1-0.3,0.2-0.6,0.2-1c0-0.4-0.1-0.7-0.2-1c-0.1-0.3-0.3-0.6-0.5-0.8
		c-0.2-0.2-0.5-0.4-0.8-0.5c-0.3-0.1-0.6-0.2-1-0.2c-0.3,0-0.7,0.1-1,0.2c-0.3,0.1-0.6,0.3-0.8,0.5c-0.2,0.2-0.4,0.5-0.5,0.8
		C200.2,22.1,200.2,22.4,200.2,22.7L200.2,22.7L200.2,22.7z M202.6,19.9c-0.4,0-0.8,0.1-1.1,0.2c-0.3,0.1-0.7,0.4-0.9,0.6
		c-0.3,0.3-0.5,0.6-0.6,0.9c-0.2,0.3-0.2,0.7-0.2,1.1c0,0.4,0.1,0.8,0.2,1.1c0.1,0.4,0.4,0.7,0.6,0.9c0.3,0.3,0.6,0.5,0.9,0.6
		c0.3,0.1,0.7,0.2,1.1,0.2c0.4,0,0.8-0.1,1.1-0.2c0.3-0.2,0.7-0.4,0.9-0.6c0.3-0.3,0.5-0.6,0.6-0.9c0.1-0.3,0.2-0.7,0.2-1.1
		c0-0.4-0.1-0.8-0.2-1.1c-0.2-0.3-0.4-0.7-0.6-0.9c-0.3-0.3-0.6-0.5-0.9-0.6C203.4,20,203,19.9,202.6,19.9z"/>
	<path class="st2" d="M15.3,9.5c0,3.9-3.2,7.1-7.1,7.1c-3.9,0-7.1-3.2-7.1-7.1c0-3.9,3.2-7.1,7.1-7.1C12.1,2.4,15.3,5.6,15.3,9.5
		L15.3,9.5z M32.5,9.5c0-3.9-3.2-7.1-7.1-7.1c-3.9,0-7.1,3.2-7.1,7.1c0,3.9,3.2,7.1,7.1,7.1C29.3,16.6,32.5,13.4,32.5,9.5L32.5,9.5z
		 M15.3,26.7c0-3.9-3.2-7.1-7.1-7.1c-3.9,0-7.1,3.2-7.1,7.1s3.2,7.1,7.1,7.1C12.1,33.8,15.3,30.6,15.3,26.7L15.3,26.7z M32.5,26.7
		c0-3.9-3.2-7.1-7.1-7.1c-3.9,0-7.1,3.2-7.1,7.1s3.2,7.1,7.1,7.1C29.3,33.8,32.5,30.6,32.5,26.7z"/>
</g>
</svg>
